<mxfile host="app.diagrams.net" agent="Mozilla/5.0 (Windows NT 10.0; Win64; x64) AppleWebKit/537.36 (KHTML, like Gecko) Chrome/129.0.0.0 Safari/537.36 Edg/129.0.0.0" version="24.7.17">
  <diagram name="Page-1" id="n3B5YkHSr50NVOGglDGO">
    <mxGraphModel dx="1042" dy="565" grid="1" gridSize="10" guides="1" tooltips="1" connect="1" arrows="1" fold="1" page="1" pageScale="1" pageWidth="850" pageHeight="1100" math="0" shadow="0">
      <root>
        <mxCell id="0" />
        <mxCell id="1" parent="0" />
        <mxCell id="dVjfEOFco5szU3zNAtqy-5" value="" style="group" vertex="1" connectable="0" parent="1">
          <mxGeometry y="30" width="220" height="230" as="geometry" />
        </mxCell>
        <mxCell id="dVjfEOFco5szU3zNAtqy-2" value="&lt;b&gt;EXTRACTION&lt;/b&gt;" style="rounded=0;whiteSpace=wrap;html=1;strokeWidth=1;verticalAlign=top;" vertex="1" parent="dVjfEOFco5szU3zNAtqy-5">
          <mxGeometry x="40" width="180" height="230" as="geometry" />
        </mxCell>
        <mxCell id="dVjfEOFco5szU3zNAtqy-3" value="Source URLs&lt;div&gt;(Football Data)&lt;/div&gt;" style="rounded=0;whiteSpace=wrap;html=1;dashed=1;" vertex="1" parent="dVjfEOFco5szU3zNAtqy-5">
          <mxGeometry x="60" y="40" width="138" height="60" as="geometry" />
        </mxCell>
        <mxCell id="dVjfEOFco5szU3zNAtqy-4" value="HTTP GET" style="rounded=0;whiteSpace=wrap;html=1;dashed=1;" vertex="1" parent="dVjfEOFco5szU3zNAtqy-5">
          <mxGeometry x="60" y="110" width="138" height="50" as="geometry" />
        </mxCell>
        <mxCell id="dVjfEOFco5szU3zNAtqy-32" value="" style="shape=image;imageAspect=0;aspect=fixed;verticalLabelPosition=bottom;verticalAlign=top;image=https://th.bing.com/th/id/OIP.Khm0PmHiz_0EzhnlcY4dzgHaHa?w=2048&amp;h=2048&amp;rs=1&amp;pid=ImgDetMain;" vertex="1" parent="dVjfEOFco5szU3zNAtqy-5">
          <mxGeometry x="148" y="170" width="50" height="50" as="geometry" />
        </mxCell>
        <mxCell id="dVjfEOFco5szU3zNAtqy-33" value="" style="shape=image;imageAspect=0;aspect=fixed;verticalLabelPosition=bottom;verticalAlign=top;image=https://cdn.icon-icons.com/icons2/2415/PNG/512/python_original_logo_icon_146381.png;" vertex="1" parent="dVjfEOFco5szU3zNAtqy-5">
          <mxGeometry x="98" y="170" width="50" height="50" as="geometry" />
        </mxCell>
        <mxCell id="dVjfEOFco5szU3zNAtqy-6" value="" style="group" vertex="1" connectable="0" parent="1">
          <mxGeometry x="40" y="350" width="180" height="230" as="geometry" />
        </mxCell>
        <mxCell id="dVjfEOFco5szU3zNAtqy-7" value="&lt;b&gt;FILE STORAGE&lt;/b&gt;" style="rounded=0;whiteSpace=wrap;html=1;strokeWidth=1;verticalAlign=top;" vertex="1" parent="dVjfEOFco5szU3zNAtqy-6">
          <mxGeometry width="180" height="230" as="geometry" />
        </mxCell>
        <mxCell id="dVjfEOFco5szU3zNAtqy-8" value="&lt;span style=&quot;color: rgba(0, 0, 0, 0); font-family: monospace; font-size: 0px; text-align: start; text-wrap: nowrap;&quot;&gt;%3CmxGraphModel%3E%3Croot%3E%3CmxCell%20id%3D%220%22%2F%3E%3CmxCell%20id%3D%221%22%20parent%3D%220%22%2F%3E%3CmxCell%20id%3D%222%22%20value%3D%22%22%20style%3D%22group%22%20vertex%3D%221%22%20connectable%3D%220%22%20parent%3D%221%22%3E%3CmxGeometry%20x%3D%2270%22%20y%3D%2260%22%20width%3D%22150%22%20height%3D%22230%22%20as%3D%22geometry%22%2F%3E%3C%2FmxCell%3E%3CmxCell%20id%3D%223%22%20value%3D%22%26lt%3Bb%26gt%3BEXTRACTION%26lt%3B%2Fb%26gt%3B%22%20style%3D%22rounded%3D0%3BwhiteSpace%3Dwrap%3Bhtml%3D1%3BstrokeWidth%3D1%3BverticalAlign%3Dtop%3B%22%20vertex%3D%221%22%20parent%3D%222%22%3E%3CmxGeometry%20width%3D%22150%22%20height%3D%22230%22%20as%3D%22geometry%22%2F%3E%3C%2FmxCell%3E%3CmxCell%20id%3D%224%22%20value%3D%22Source%20URLs%26lt%3Bdiv%26gt%3B(Football%20Data)%26lt%3B%2Fdiv%26gt%3B%22%20style%3D%22rounded%3D0%3BwhiteSpace%3Dwrap%3Bhtml%3D1%3Bdashed%3D1%3B%22%20vertex%3D%221%22%20parent%3D%222%22%3E%3CmxGeometry%20x%3D%2220%22%20y%3D%2240%22%20width%3D%22115%22%20height%3D%2280%22%20as%3D%22geometry%22%2F%3E%3C%2FmxCell%3E%3CmxCell%20id%3D%225%22%20value%3D%22HTTP%20GET%22%20style%3D%22rounded%3D0%3BwhiteSpace%3Dwrap%3Bhtml%3D1%3Bdashed%3D1%3B%22%20vertex%3D%221%22%20parent%3D%222%22%3E%3CmxGeometry%20x%3D%2220%22%20y%3D%22150%22%20width%3D%22115%22%20height%3D%2260%22%20as%3D%22geometry%22%2F%3E%3C%2FmxCell%3E%3C%2Froot%3E%3C%2FmxGraphModel%3E&lt;/span&gt;Raw Data&lt;div&gt;(CSV Files)&lt;/div&gt;" style="rounded=0;whiteSpace=wrap;html=1;dashed=1;" vertex="1" parent="dVjfEOFco5szU3zNAtqy-6">
          <mxGeometry x="24" y="40" width="138" height="50" as="geometry" />
        </mxCell>
        <mxCell id="dVjfEOFco5szU3zNAtqy-9" value="Transformed Data&lt;div&gt;(Cleaned)&lt;/div&gt;" style="rounded=0;whiteSpace=wrap;html=1;dashed=1;" vertex="1" parent="dVjfEOFco5szU3zNAtqy-6">
          <mxGeometry x="24" y="110" width="138" height="50" as="geometry" />
        </mxCell>
        <mxCell id="dVjfEOFco5szU3zNAtqy-36" value="" style="shape=image;imageAspect=0;aspect=fixed;verticalLabelPosition=bottom;verticalAlign=top;image=https://th.bing.com/th/id/OIP.FZaKXBfueHSKBQM4B6p6eQHaHa?rs=1&amp;pid=ImgDetMain;" vertex="1" parent="dVjfEOFco5szU3zNAtqy-6">
          <mxGeometry x="110" y="170" width="40" height="40" as="geometry" />
        </mxCell>
        <mxCell id="dVjfEOFco5szU3zNAtqy-37" value="" style="shape=image;imageAspect=0;aspect=fixed;verticalLabelPosition=bottom;verticalAlign=top;image=https://th.bing.com/th/id/OIP.pJ7qwBWMkbrpWHaAzSSfywHaHa?rs=1&amp;pid=ImgDetMain;" vertex="1" parent="dVjfEOFco5szU3zNAtqy-6">
          <mxGeometry x="40" y="170" width="40" height="40" as="geometry" />
        </mxCell>
        <mxCell id="dVjfEOFco5szU3zNAtqy-10" style="edgeStyle=orthogonalEdgeStyle;rounded=0;orthogonalLoop=1;jettySize=auto;html=1;entryX=0.5;entryY=0;entryDx=0;entryDy=0;strokeWidth=3;" edge="1" parent="1" source="dVjfEOFco5szU3zNAtqy-2" target="dVjfEOFco5szU3zNAtqy-7">
          <mxGeometry relative="1" as="geometry" />
        </mxCell>
        <mxCell id="dVjfEOFco5szU3zNAtqy-11" value="" style="group" vertex="1" connectable="0" parent="1">
          <mxGeometry x="340" y="30" width="190" height="290" as="geometry" />
        </mxCell>
        <mxCell id="dVjfEOFco5szU3zNAtqy-12" value="&lt;b&gt;TRANSFORMATION&lt;/b&gt;" style="rounded=0;whiteSpace=wrap;html=1;strokeWidth=1;verticalAlign=top;" vertex="1" parent="dVjfEOFco5szU3zNAtqy-11">
          <mxGeometry width="190" height="271.2903225806451" as="geometry" />
        </mxCell>
        <mxCell id="dVjfEOFco5szU3zNAtqy-13" value="Data &lt;font color=&quot;#1fff35&quot;&gt;Cleaning&lt;/font&gt;&lt;div&gt;&lt;br&gt;&lt;div style=&quot;font-size: 12px;&quot;&gt;&lt;font color=&quot;#3b9dff&quot;&gt;Date &lt;/font&gt;&lt;b&gt;Formatting&lt;/b&gt;&lt;/div&gt;&lt;div style=&quot;font-size: 12px;&quot;&gt;&lt;br&gt;&lt;/div&gt;&lt;div style=&quot;font-size: 12px;&quot;&gt;Handling &lt;b&gt;&lt;font color=&quot;#ff4d0d&quot;&gt;Missing Values&lt;/font&gt;&lt;/b&gt;&lt;/div&gt;&lt;div style=&quot;font-size: 12px;&quot;&gt;&lt;br&gt;&lt;/div&gt;&lt;div style=&quot;font-size: 12px;&quot;&gt;&lt;font color=&quot;#ff14e0&quot;&gt;Type &lt;/font&gt;Conversion&lt;/div&gt;&lt;/div&gt;" style="rounded=0;whiteSpace=wrap;html=1;dashed=1;spacingTop=1;spacing=5;fontSize=12;align=left;" vertex="1" parent="dVjfEOFco5szU3zNAtqy-11">
          <mxGeometry x="25.34" y="31.35" width="145.66" height="168.65" as="geometry" />
        </mxCell>
        <mxCell id="dVjfEOFco5szU3zNAtqy-29" value="" style="shape=image;imageAspect=0;aspect=fixed;verticalLabelPosition=bottom;verticalAlign=top;image=https://th.bing.com/th/id/OIP.Khm0PmHiz_0EzhnlcY4dzgHaHa?w=2048&amp;h=2048&amp;rs=1&amp;pid=ImgDetMain;" vertex="1" parent="dVjfEOFco5szU3zNAtqy-11">
          <mxGeometry x="121" y="210" width="50" height="50" as="geometry" />
        </mxCell>
        <mxCell id="dVjfEOFco5szU3zNAtqy-31" value="" style="shape=image;imageAspect=0;aspect=fixed;verticalLabelPosition=bottom;verticalAlign=top;image=https://cdn.icon-icons.com/icons2/2415/PNG/512/python_original_logo_icon_146381.png;" vertex="1" parent="dVjfEOFco5szU3zNAtqy-11">
          <mxGeometry x="58" y="210" width="55" height="55" as="geometry" />
        </mxCell>
        <mxCell id="dVjfEOFco5szU3zNAtqy-35" value="" style="shape=image;imageAspect=0;aspect=fixed;verticalLabelPosition=bottom;verticalAlign=top;image=https://th.bing.com/th/id/R.3e98e9e20822e10aa3683e7e8b88e47f?rik=i3qJcWQwL9uFEQ&amp;pid=ImgRaw&amp;r=0;" vertex="1" parent="dVjfEOFco5szU3zNAtqy-11">
          <mxGeometry x="18" y="215" width="40" height="40" as="geometry" />
        </mxCell>
        <mxCell id="dVjfEOFco5szU3zNAtqy-21" style="edgeStyle=orthogonalEdgeStyle;rounded=0;orthogonalLoop=1;jettySize=auto;html=1;entryX=-0.015;entryY=0.428;entryDx=0;entryDy=0;entryPerimeter=0;strokeWidth=3;" edge="1" parent="1" source="dVjfEOFco5szU3zNAtqy-2" target="dVjfEOFco5szU3zNAtqy-12">
          <mxGeometry relative="1" as="geometry" />
        </mxCell>
        <mxCell id="dVjfEOFco5szU3zNAtqy-22" style="edgeStyle=orthogonalEdgeStyle;rounded=0;orthogonalLoop=1;jettySize=auto;html=1;entryX=-0.017;entryY=0.443;entryDx=0;entryDy=0;entryPerimeter=0;strokeWidth=3;" edge="1" parent="1" source="dVjfEOFco5szU3zNAtqy-12" target="dVjfEOFco5szU3zNAtqy-18">
          <mxGeometry relative="1" as="geometry" />
        </mxCell>
        <mxCell id="dVjfEOFco5szU3zNAtqy-18" value="&lt;b&gt;LOADING&lt;/b&gt;" style="rounded=0;whiteSpace=wrap;html=1;strokeWidth=1;verticalAlign=top;" vertex="1" parent="1">
          <mxGeometry x="630" y="30" width="120" height="200" as="geometry" />
        </mxCell>
        <mxCell id="dVjfEOFco5szU3zNAtqy-19" value="PostgreSQL Database" style="rounded=0;whiteSpace=wrap;html=1;dashed=1;spacingTop=1;spacing=5;fontSize=12;align=left;" vertex="1" parent="1">
          <mxGeometry x="650" y="60.67" width="74.66" height="88.65" as="geometry" />
        </mxCell>
        <mxCell id="dVjfEOFco5szU3zNAtqy-23" value="" style="shape=image;verticalLabelPosition=bottom;labelBackgroundColor=default;verticalAlign=top;aspect=fixed;imageAspect=0;image=https://www.myintervals.com/blog/wp-content/uploads/2011/12/postgresql-logo1.png;" vertex="1" parent="1">
          <mxGeometry x="660" y="160" width="60" height="66.67" as="geometry" />
        </mxCell>
      </root>
    </mxGraphModel>
  </diagram>
</mxfile>
